# xmcd CD database file
# Copyright (C) 1993-1998 Ti Kan
#
# Track frame offsets:
#    150
#    15398
#    130792
#    168795
#    254045
#    286555
#
# Disc length: 4008 seconds
#
# Revision: 1
# Processed by: cddbd v1.4b41PL1 Copyright (c) Steve Scherf et al.
# Submitted via: MyCDplayer 5.0.0b  (wjohn@fix.net)
#
DISCID=430fa606
DTITLE=Vaughan, St4evie Ray Vaughan and Buddy Guy - 
DTITLE=See You Later
DYEAR=1900
DGENRE=
TTITLE0=Still Called The Blues
TTITLE1=Louisiana Blues/Don't Throw Your Love On Me
TTITLE2=Mary Had A Little Lamb
TTITLE3=Leave My Girl Alone
TTITLE4=Stormy Monday Blues
TTITLE5=Mary Had A Little Lamb
EXTD=
EXTT0=
EXTT1=So Strong
EXTT2=
EXTT3=
EXTT4=
EXTT5=
PLAYORDER=
